<svg xmlns="http://www.w3.org/2000/svg" width="1600" height="900" viewBox="0 0 1600 900">
  <defs>
    <filter id="shadow" x="-20%" y="-20%" width="140%" height="140%">
      <feDropShadow dx="0" dy="8" stdDeviation="10" flood-color="#0F172A" flood-opacity="0.12"/>
    </filter>
    <linearGradient id="topBar" x1="0%" y1="0%" x2="100%" y2="0%">
      <stop offset="0%" stop-color="#1D4ED8"/>
      <stop offset="100%" stop-color="#0F766E"/>
    </linearGradient>
    <marker id="arrow" markerWidth="12" markerHeight="12" refX="10" refY="6" orient="auto">
      <path d="M0,0 L12,6 L0,12 z" fill="#475569" />
    </marker>
  </defs>
  <rect width="100%" height="100%" fill="#F5F7FB" />
  <rect x="32" y="28" width="1536" height="74" rx="22" fill="url(#topBar)" filter="url(#shadow)" />
  <text x="800.0" y="73" text-anchor="middle" font-size="32" font-weight="700" font-family="Microsoft YaHei, SimHei, sans-serif" fill="#FFFFFF">图1 前端功能设计图</text>

<rect x="58" y="132" width="1484" height="710" rx="28" fill="none" stroke="#CBD5E1" stroke-width="2.5" stroke-dasharray="12 10"/><text x="82" y="168" font-size="22" font-weight="700" font-family="Microsoft YaHei, SimHei, sans-serif" fill="#475569">前端展示层（React + TypeScript + Vite）</text>
<rect x="622" y="174" width="356" height="120" rx="24" fill="#DBEAFE" stroke="#2563EB" stroke-width="2" filter="url(#shadow)"/>
<text x="650" y="216" font-size="26" font-weight="700" font-family="Microsoft YaHei, SimHei, sans-serif" fill="#1F2937">统一前端门户</text>
<text x="652" y="260" font-size="21" font-family="Microsoft YaHei, SimHei, sans-serif" fill="#6B7280">登录认证</text>
<text x="652" y="298" font-size="21" font-family="Microsoft YaHei, SimHei, sans-serif" fill="#6B7280">首页总览</text>
<text x="652" y="336" font-size="21" font-family="Microsoft YaHei, SimHei, sans-serif" fill="#6B7280">侧边菜单导航</text>
<rect x="106" y="360" width="286" height="186" rx="24" fill="#FFFFFF" stroke="#2563EB" stroke-width="2" filter="url(#shadow)"/>
<text x="134" y="402" font-size="26" font-weight="700" font-family="Microsoft YaHei, SimHei, sans-serif" fill="#1F2937">数据管理</text>
<text x="136" y="446" font-size="21" font-family="Microsoft YaHei, SimHei, sans-serif" fill="#6B7280">项目管理</text>
<text x="136" y="484" font-size="21" font-family="Microsoft YaHei, SimHei, sans-serif" fill="#6B7280">管道参数</text>
<text x="136" y="522" font-size="21" font-family="Microsoft YaHei, SimHei, sans-serif" fill="#6B7280">泵站参数</text>
<text x="136" y="560" font-size="21" font-family="Microsoft YaHei, SimHei, sans-serif" fill="#6B7280">油品参数</text>
<rect x="448" y="360" width="286" height="186" rx="24" fill="#FFFFFF" stroke="#059669" stroke-width="2" filter="url(#shadow)"/>
<text x="476" y="402" font-size="26" font-weight="700" font-family="Microsoft YaHei, SimHei, sans-serif" fill="#1F2937">计算分析</text>
<text x="478" y="446" font-size="21" font-family="Microsoft YaHei, SimHei, sans-serif" fill="#6B7280">水力分析</text>
<text x="478" y="484" font-size="21" font-family="Microsoft YaHei, SimHei, sans-serif" fill="#6B7280">泵站优化</text>
<text x="478" y="522" font-size="21" font-family="Microsoft YaHei, SimHei, sans-serif" fill="#6B7280">敏感性分析</text>
<rect x="790" y="360" width="286" height="186" rx="24" fill="#FFFFFF" stroke="#D97706" stroke-width="2" filter="url(#shadow)"/>
<text x="818" y="402" font-size="26" font-weight="700" font-family="Microsoft YaHei, SimHei, sans-serif" fill="#1F2937">特色功能</text>
<text x="820" y="446" font-size="21" font-family="Microsoft YaHei, SimHei, sans-serif" fill="#6B7280">故障诊断</text>
<text x="820" y="484" font-size="21" font-family="Microsoft YaHei, SimHei, sans-serif" fill="#6B7280">方案对比</text>
<text x="820" y="522" font-size="21" font-family="Microsoft YaHei, SimHei, sans-serif" fill="#6B7280">碳排核算</text>
<text x="820" y="560" font-size="21" font-family="Microsoft YaHei, SimHei, sans-serif" fill="#6B7280">实时监控</text>
<rect x="1132" y="360" width="286" height="186" rx="24" fill="#FFFFFF" stroke="#7C3AED" stroke-width="2" filter="url(#shadow)"/>
<text x="1160" y="402" font-size="26" font-weight="700" font-family="Microsoft YaHei, SimHei, sans-serif" fill="#1F2937">智能助手</text>
<text x="1162" y="446" font-size="21" font-family="Microsoft YaHei, SimHei, sans-serif" fill="#6B7280">智能对话</text>
<text x="1162" y="484" font-size="21" font-family="Microsoft YaHei, SimHei, sans-serif" fill="#6B7280">知识库录入</text>
<text x="1162" y="522" font-size="21" font-family="Microsoft YaHei, SimHei, sans-serif" fill="#6B7280">智能报告</text>
<rect x="450" y="618" width="700" height="154" rx="24" fill="#CFFAFE" stroke="#0891B2" stroke-width="2" filter="url(#shadow)"/>
<text x="478" y="660" font-size="26" font-weight="700" font-family="Microsoft YaHei, SimHei, sans-serif" fill="#1F2937">报告与可视化输出</text>
<text x="480" y="704" font-size="21" font-family="Microsoft YaHei, SimHei, sans-serif" fill="#6B7280">图表趋势、告警卡片、分析结论、正式报告下载（DOCX/PDF）</text>
<line x1="800" y1="294" x2="250" y2="360" stroke="#475569" stroke-width="4" marker-end="url(#arrow)"/>
<rect x="451.0" y="309.0" width="148" height="34" rx="17" fill="#FFFFFF" stroke="#CBD5E1" stroke-width="1.5"/>
<text x="525.0" y="333.0" text-anchor="middle" font-size="18" font-family="Microsoft YaHei, SimHei, sans-serif" fill="#475569">菜单进入</text>
<line x1="800" y1="294" x2="592" y2="360" stroke="#475569" stroke-width="4" marker-end="url(#arrow)"/>
<rect x="622.0" y="309.0" width="148" height="34" rx="17" fill="#FFFFFF" stroke="#CBD5E1" stroke-width="1.5"/>
<text x="696.0" y="333.0" text-anchor="middle" font-size="18" font-family="Microsoft YaHei, SimHei, sans-serif" fill="#475569">菜单进入</text>
<line x1="800" y1="294" x2="934" y2="360" stroke="#475569" stroke-width="4" marker-end="url(#arrow)"/>
<rect x="793.0" y="309.0" width="148" height="34" rx="17" fill="#FFFFFF" stroke="#CBD5E1" stroke-width="1.5"/>
<text x="867.0" y="333.0" text-anchor="middle" font-size="18" font-family="Microsoft YaHei, SimHei, sans-serif" fill="#475569">菜单进入</text>
<line x1="800" y1="294" x2="1274" y2="360" stroke="#475569" stroke-width="4" marker-end="url(#arrow)"/>
<rect x="963.0" y="309.0" width="148" height="34" rx="17" fill="#FFFFFF" stroke="#CBD5E1" stroke-width="1.5"/>
<text x="1037.0" y="333.0" text-anchor="middle" font-size="18" font-family="Microsoft YaHei, SimHei, sans-serif" fill="#475569">菜单进入</text>
<line x1="250" y1="546" x2="620" y2="618" stroke="#475569" stroke-width="4" marker-end="url(#arrow)"/>
<rect x="361.0" y="564.0" width="148" height="34" rx="17" fill="#FFFFFF" stroke="#CBD5E1" stroke-width="1.5"/>
<text x="435.0" y="588.0" text-anchor="middle" font-size="18" font-family="Microsoft YaHei, SimHei, sans-serif" fill="#475569">数据驱动</text>
<line x1="592" y1="546" x2="724" y2="618" stroke="#475569" stroke-width="4" marker-end="url(#arrow)"/>
<rect x="584.0" y="564.0" width="148" height="34" rx="17" fill="#FFFFFF" stroke="#CBD5E1" stroke-width="1.5"/>
<text x="658.0" y="588.0" text-anchor="middle" font-size="18" font-family="Microsoft YaHei, SimHei, sans-serif" fill="#475569">分析结果</text>
<line x1="934" y1="546" x2="874" y2="618" stroke="#475569" stroke-width="4" marker-end="url(#arrow)"/>
<rect x="830.0" y="564.0" width="148" height="34" rx="17" fill="#FFFFFF" stroke="#CBD5E1" stroke-width="1.5"/>
<text x="904.0" y="588.0" text-anchor="middle" font-size="18" font-family="Microsoft YaHei, SimHei, sans-serif" fill="#475569">专题结果</text>
<line x1="1274" y1="546" x2="980" y2="618" stroke="#475569" stroke-width="4" marker-end="url(#arrow)"/>
<rect x="1053.0" y="564.0" width="148" height="34" rx="17" fill="#FFFFFF" stroke="#CBD5E1" stroke-width="1.5"/>
<text x="1127.0" y="588.0" text-anchor="middle" font-size="18" font-family="Microsoft YaHei, SimHei, sans-serif" fill="#475569">AI增强</text>
<rect x="118" y="790" width="330" height="54" rx="27" fill="#DBEAFE" stroke="#2563EB" stroke-width="2"/><text x="283.0" y="825.0" text-anchor="middle" font-size="20" font-weight="700" font-family="Microsoft YaHei, SimHei, sans-serif" fill="#2563EB">面向业务人员的统一操作入口</text>
<rect x="494" y="790" width="286" height="54" rx="27" fill="#D1FAE5" stroke="#059669" stroke-width="2"/><text x="637.0" y="825.0" text-anchor="middle" font-size="20" font-weight="700" font-family="Microsoft YaHei, SimHei, sans-serif" fill="#059669">参数录入与分析联动</text>
<rect x="818" y="790" width="288" height="54" rx="27" fill="#EDE9FE" stroke="#7C3AED" stroke-width="2"/><text x="962.0" y="825.0" text-anchor="middle" font-size="20" font-weight="700" font-family="Microsoft YaHei, SimHei, sans-serif" fill="#7C3AED">智能分析与知识辅助</text>
<rect x="1140" y="790" width="286" height="54" rx="27" fill="#FEF3C7" stroke="#D97706" stroke-width="2"/><text x="1283.0" y="825.0" text-anchor="middle" font-size="20" font-weight="700" font-family="Microsoft YaHei, SimHei, sans-serif" fill="#D97706">结果归档与报告输出</text>
</svg>
